<?xml version="1.0" encoding="UTF-8" standalone="no"?>
<!-- Created with Inkscape (http://www.inkscape.org/) -->

<svg
   xmlns:dc="http://purl.org/dc/elements/1.1/"
   xmlns:cc="http://creativecommons.org/ns#"
   xmlns:rdf="http://www.w3.org/1999/02/22-rdf-syntax-ns#"
   xmlns:svg="http://www.w3.org/2000/svg"
   xmlns="http://www.w3.org/2000/svg"
   xmlns:sodipodi="http://sodipodi.sourceforge.net/DTD/sodipodi-0.dtd"
   xmlns:inkscape="http://www.inkscape.org/namespaces/inkscape"
   width="72"
   height="24"
   id="svg2985"
   version="1.1"
   inkscape:version="0.48.0 r9654"
   sodipodi:docname="smallalien.svg">
  <defs
     id="defs2987">
    <inkscape:path-effect
       is_visible="true"
       id="path-effect6626"
       effect="spiro" />
    <inkscape:path-effect
       effect="spiro"
       id="path-effect6622"
       is_visible="true" />
  </defs>
  <sodipodi:namedview
     id="base"
     pagecolor="#ffffff"
     bordercolor="#666666"
     borderopacity="1.0"
     inkscape:pageopacity="0.0"
     inkscape:pageshadow="2"
     inkscape:zoom="7.8665629"
     inkscape:cx="27.865795"
     inkscape:cy="10.067416"
     inkscape:current-layer="layer1"
     showgrid="true"
     inkscape:grid-bbox="true"
     inkscape:document-units="px"
     showguides="true"
     inkscape:guide-bbox="true"
     inkscape:window-width="1280"
     inkscape:window-height="752"
     inkscape:window-x="0"
     inkscape:window-y="0"
     inkscape:window-maximized="0">
    <inkscape:grid
       type="xygrid"
       id="grid6098"
       empspacing="24"
       visible="true"
       enabled="true"
       snapvisiblegridlinesonly="false" />
  </sodipodi:namedview>
  <metadata
     id="metadata2990">
    <rdf:RDF>
      <cc:Work
         rdf:about="">
        <dc:format>image/svg+xml</dc:format>
        <dc:type
           rdf:resource="http://purl.org/dc/dcmitype/StillImage" />
        <dc:title />
      </cc:Work>
    </rdf:RDF>
  </metadata>
  <g
     id="layer1"
     inkscape:label="Layer 1"
     inkscape:groupmode="layer"
     transform="translate(0,-24)">
    <path
       inkscape:connector-curvature="0"
       id="path6100"
       d="m 36,25 c -6.075133,-1e-6 -10.999999,4.924867 -11,11 l 0,7.333333 C 25,45.358377 26.641623,47 28.666667,47 30.691711,47 32.333334,45.358377 32.333334,43.333333 32.333334,45.358377 33.974956,47 36,47 38.025044,47 39.666667,45.358377 39.666667,43.333333 39.666667,45.358377 41.30829,47 43.333333,47 45.358377,47 47,45.358377 47,43.333333 L 47,36 C 47,29.924867 42.075132,25 36,25 z"
       style="fill:#ff2e1e;fill-opacity:1;stroke:#121212;stroke-width:2;stroke-linecap:round;stroke-linejoin:round;stroke-miterlimit:4;stroke-opacity:1;stroke-dasharray:none;stroke-dashoffset:0" />
    <g
       id="g6628"
       transform="translate(39.5,8)"
       style="stroke:#121212;stroke-opacity:1;stroke-linecap:round">
      <path
         inkscape:connector-curvature="0"
         inkscape:original-d="m -11,27 3,-3"
         inkscape:path-effect="#path-effect6622"
         id="path6620"
         d="m -11,27 3,-3"
         style="fill:none;stroke:#121212;stroke-width:2;stroke-linecap:round;stroke-linejoin:miter;stroke-miterlimit:4;stroke-opacity:1;stroke-dasharray:none" />
      <path
         style="fill:none;stroke:#121212;stroke-width:2;stroke-linecap:round;stroke-linejoin:miter;stroke-miterlimit:4;stroke-opacity:1;stroke-dasharray:none"
         d="m -8,27 -3,-3"
         id="path6624"
         inkscape:path-effect="#path-effect6626"
         inkscape:original-d="m -8,27 -3,-3"
         inkscape:connector-curvature="0" />
    </g>
    <path
       style="fill:#ff2e1e;fill-opacity:1;stroke:#121212;stroke-width:2;stroke-linecap:round;stroke-linejoin:round;stroke-miterlimit:4;stroke-opacity:1;stroke-dasharray:none;stroke-dashoffset:0"
       d="m 12,25 c -6.0751327,-1e-6 -10.999999,4.924867 -11,11 l 0,7.333333 C 1,45.358377 2.6416228,47 4.6666672,47 6.6917108,47 8.3333335,45.358377 8.3333335,43.333333 8.3333335,45.358377 9.9749563,47 12,47 14.025044,47 15.666667,45.358377 15.666667,43.333333 15.666667,45.358377 17.30829,47 19.333333,47 21.358377,47 23,45.358377 23,43.333333 L 23,36 C 23,29.924867 18.075132,25 12,25 z"
       id="path3773"
       inkscape:connector-curvature="0" />
    <path
       sodipodi:type="arc"
       style="fill:none;stroke:#121212;stroke-width:4.37525463;stroke-linecap:round;stroke-linejoin:miter;stroke-miterlimit:4;stroke-opacity:1;stroke-dasharray:none;stroke-dashoffset:2"
       id="path3779"
       sodipodi:cx="-2.4285715"
       sodipodi:cy="9.6428576"
       sodipodi:rx="4"
       sodipodi:ry="4.7857141"
       d="m 1.5714285,9.6428576 a 4,4.7857141 0 1 1 -8,-3e-7"
       transform="matrix(0.50000001,0,0,0.41791048,13.214286,30.970149)"
       sodipodi:start="0"
       sodipodi:end="3.1415927"
       sodipodi:open="true" />
    <path
       sodipodi:type="arc"
       style="fill:#121212;fill-opacity:1;stroke:#121212;stroke-width:6.18241262;stroke-linecap:round;stroke-linejoin:miter;stroke-miterlimit:4;stroke-opacity:1;stroke-dasharray:none;stroke-dashoffset:2"
       id="path3785"
       sodipodi:cx="-15.25"
       sodipodi:cy="18.625"
       sodipodi:rx="4"
       sodipodi:ry="5.375"
       d="m -11.25,18.625 a 4,5.375 0 1 1 -8,0 4,5.375 0 1 1 8,0 z"
       transform="matrix(0.375,0,0,0.27906976,11.71875,28.302326)" />
    <path
       transform="matrix(0.375,0,0,0.27906976,23.71875,28.302326)"
       d="m -11.25,18.625 a 4,5.375 0 1 1 -8,0 4,5.375 0 1 1 8,0 z"
       sodipodi:ry="5.375"
       sodipodi:rx="4"
       sodipodi:cy="18.625"
       sodipodi:cx="-15.25"
       id="path3787"
       style="fill:#121212;fill-opacity:1;stroke:#121212;stroke-width:6.18241262;stroke-linecap:round;stroke-linejoin:miter;stroke-miterlimit:4;stroke-opacity:1;stroke-dasharray:none;stroke-dashoffset:2"
       sodipodi:type="arc" />
    <path
       sodipodi:open="true"
       sodipodi:end="3.1415927"
       sodipodi:start="0"
       transform="matrix(0.50000001,0,0,-0.41791048,37.214286,42.029851)"
       d="m 1.5714285,9.6428576 a 4,4.7857141 0 1 1 -8,-3e-7"
       sodipodi:ry="4.7857141"
       sodipodi:rx="4"
       sodipodi:cy="9.6428576"
       sodipodi:cx="-2.4285715"
       id="path6102"
       style="fill:none;stroke:#121212;stroke-width:4.37525463;stroke-linecap:round;stroke-linejoin:miter;stroke-miterlimit:4;stroke-opacity:1;stroke-dasharray:none;stroke-dashoffset:2"
       sodipodi:type="arc" />
    <g
       style="stroke:#121212;stroke-opacity:1;stroke-linecap:round"
       transform="translate(51.5,8)"
       id="g6632">
      <path
         style="fill:none;stroke:#121212;stroke-width:2;stroke-linecap:round;stroke-linejoin:miter;stroke-miterlimit:4;stroke-opacity:1;stroke-dasharray:none"
         d="m -11,27 3,-3"
         id="path6634"
         inkscape:path-effect="#path-effect6622"
         inkscape:original-d="m -11,27 3,-3"
         inkscape:connector-curvature="0" />
      <path
         inkscape:connector-curvature="0"
         inkscape:original-d="m -8,27 -3,-3"
         inkscape:path-effect="#path-effect6626"
         id="path6636"
         d="m -8,27 -3,-3"
         style="fill:none;stroke:#121212;stroke-width:2;stroke-linecap:round;stroke-linejoin:miter;stroke-miterlimit:4;stroke-opacity:1;stroke-dasharray:none" />
    </g>
    <path
       inkscape:connector-curvature="0"
       id="path6638"
       d="m 60,25 c -6.075133,-1e-6 -10.999999,4.924867 -11,11 l 0,7.333333 C 49,45.358377 50.641623,47 52.666667,47 54.691711,47 56.333334,45.358377 56.333334,43.333333 56.333334,45.358377 57.974956,47 60,47 62.025044,47 63.666667,45.358377 63.666667,43.333333 63.666667,45.358377 65.30829,47 67.333333,47 69.358377,47 71,45.358377 71,43.333333 L 71,36 C 71,29.924867 66.075132,25 60,25 z"
       style="fill:#ff2e1e;fill-opacity:1;stroke:#121212;stroke-width:2;stroke-linecap:round;stroke-linejoin:round;stroke-miterlimit:4;stroke-opacity:1;stroke-dasharray:none;stroke-dashoffset:0" />
    <path
       sodipodi:end="3.1415927"
       sodipodi:start="0"
       transform="matrix(0.50000001,0,0,0.41791048,61.214286,30.970149)"
       d="m 1.5714285,9.6428576 a 4,4.7857141 0 1 1 -8,-3e-7 l 4,3e-7 z"
       sodipodi:ry="4.7857141"
       sodipodi:rx="4"
       sodipodi:cy="9.6428576"
       sodipodi:cx="-2.4285715"
       id="path6640"
       style="fill:#121212;fill-opacity:1;stroke:#121212;stroke-width:4.37525511000000034;stroke-linecap:butt;stroke-linejoin:round;stroke-miterlimit:4;stroke-opacity:1;stroke-dasharray:none;stroke-dashoffset:2"
       sodipodi:type="arc" />
    <path
       sodipodi:open="true"
       sodipodi:end="3.1415927"
       sodipodi:start="0"
       transform="matrix(0.37500002,0,0,-0.31343285,54.910714,36.522388)"
       d="m 1.5714285,9.6428576 a 4,4.7857141 0 1 1 -8,-3e-7"
       sodipodi:ry="4.7857141"
       sodipodi:rx="4"
       sodipodi:cy="9.6428576"
       sodipodi:cx="-2.4285715"
       id="path6646"
       style="fill:none;stroke:#121212;stroke-width:5.833673;stroke-linecap:round;stroke-linejoin:miter;stroke-miterlimit:4;stroke-opacity:1;stroke-dasharray:none;stroke-dashoffset:2"
       sodipodi:type="arc" />
    <path
       sodipodi:type="arc"
       style="fill:none;stroke:#121212;stroke-width:5.833673;stroke-linecap:round;stroke-linejoin:miter;stroke-miterlimit:4;stroke-opacity:1;stroke-dasharray:none;stroke-dashoffset:2"
       id="path6648"
       sodipodi:cx="-2.4285715"
       sodipodi:cy="9.6428576"
       sodipodi:rx="4"
       sodipodi:ry="4.7857141"
       d="m 1.5714285,9.6428576 a 4,4.7857141 0 1 1 -8,-3e-7"
       transform="matrix(0.37500002,0,0,-0.31343285,66.910714,36.522388)"
       sodipodi:start="0"
       sodipodi:end="3.1415927"
       sodipodi:open="true" />
  </g>
</svg>
